<svg xmlns="http://www.w3.org/2000/svg" width="240" height="280" viewBox="0 0 240 280">
  <rect width="240" height="280" fill="#FAF6FF" rx="12"/>
  <rect x="20" y="20" width="200" height="200" fill="#fff" stroke="#C3A6D8" stroke-width="2" rx="8"/>
  <!-- Pseudo QR pattern -->
  <g fill="#2D1B3D">
    <rect x="32" y="32" width="48" height="48" rx="4"/>
    <rect x="40" y="40" width="32" height="32" fill="#FAF6FF" rx="2"/>
    <rect x="48" y="48" width="16" height="16" rx="1"/>
    <rect x="160" y="32" width="48" height="48" rx="4"/>
    <rect x="168" y="40" width="32" height="32" fill="#FAF6FF" rx="2"/>
    <rect x="176" y="48" width="16" height="16" rx="1"/>
    <rect x="32" y="160" width="48" height="48" rx="4"/>
    <rect x="40" y="168" width="32" height="32" fill="#FAF6FF" rx="2"/>
    <rect x="48" y="176" width="16" height="16" rx="1"/>
    <!-- Random blocks -->
    <rect x="96" y="40" width="8" height="8"/><rect x="112" y="40" width="8" height="8"/><rect x="128" y="48" width="8" height="8"/>
    <rect x="96" y="56" width="8" height="8"/><rect x="120" y="64" width="8" height="8"/><rect x="136" y="56" width="8" height="8"/>
    <rect x="88" y="88" width="8" height="8"/><rect x="104" y="96" width="8" height="8"/><rect x="120" y="88" width="8" height="8"/>
    <rect x="136" y="104" width="8" height="8"/><rect x="152" y="96" width="8" height="8"/><rect x="168" y="104" width="8" height="8"/>
    <rect x="96" y="120" width="8" height="8"/><rect x="112" y="128" width="8" height="8"/><rect x="144" y="120" width="8" height="8"/>
    <rect x="88" y="144" width="8" height="8"/><rect x="104" y="152" width="8" height="8"/><rect x="128" y="160" width="8" height="8"/>
    <rect x="152" y="152" width="8" height="8"/><rect x="176" y="160" width="8" height="8"/><rect x="192" y="144" width="8" height="8"/>
    <rect x="96" y="176" width="8" height="8"/><rect x="120" y="184" width="8" height="8"/><rect x="144" y="176" width="8" height="8"/>
    <rect x="168" y="184" width="8" height="8"/><rect x="192" y="192" width="8" height="8"/>
  </g>
  <text x="120" y="245" text-anchor="middle" font-family="Inter, sans-serif" font-size="11" fill="#6B5A7A">UPI QR  Placeholder</text>
  <text x="120" y="262" text-anchor="middle" font-family="Inter, sans-serif" font-size="10" fill="#9B7BBF">Replace with real QR code</text>
</svg>
